<?xml version="1.0" encoding="UTF-8" standalone="no"?>
<!DOCTYPE svg PUBLIC "-//W3C//DTD SVG 1.1//EN" "http://www.w3.org/Graphics/SVG/1.1/DTD/svg11.dtd">
<svg width="100%" height="100%" viewBox="0 0 500 500" version="1.1" xmlns="http://www.w3.org/2000/svg"
     xml:space="preserve"
     style="fill-rule:evenodd;clip-rule:evenodd;stroke-linejoin:round;stroke-miterlimit:2;">
    <rect id="Artboard1" x="0" y="0" width="500" height="500" style="fill:none;"/>
    <g id="Artboard11">
        <g transform="matrix(1,0,0,1,0,124.746)">
            <path d="M250,250C250,250 276.267,219.72 261.821,173.526C258.811,163.901 254.574,153.724 250,143.507C229.246,97.154 225.296,50 250,50C360.162,50 449.641,139.259 449.999,249.353L450,250L250,250Z" style="fill:rgb(37,37,37);"/>
        </g>
        <path d="M250,174.746C225.296,174.746 229.246,221.9 250,268.254C254.574,278.47 258.811,288.647 261.821,298.272C276.267,344.466 250,374.746 250,374.746L50,374.746C50,264.584 139.259,175.105 249.353,174.747L250,174.746Z" style="fill:rgb(79,255,138);"/>
        <g transform="matrix(0.669571,-0.386577,0.388284,0.672527,-57.3779,160.356)">
            <path d="M250,99.902C250,96.046 248.462,92.349 245.724,89.623C242.986,86.897 239.272,85.366 235.4,85.366C235.399,85.366 235.397,85.366 235.396,85.366C231.524,85.366 227.81,86.897 225.072,89.623C222.334,92.349 220.796,96.046 220.796,99.902C220.796,135.867 220.796,228.703 220.796,264.668C220.796,268.523 222.334,272.221 225.072,274.947C227.81,277.673 231.524,279.204 235.396,279.204C235.397,279.204 235.399,279.204 235.4,279.204C239.272,279.204 242.986,277.673 245.724,274.947C248.462,272.221 250,268.523 250,264.668C250,228.703 250,135.867 250,99.902Z" style="fill:rgb(79,255,138);"/>
        </g>
        <g transform="matrix(-0.669571,-0.386577,-0.388284,0.672527,557.378,160.356)">
            <path d="M250,99.902C250,96.046 248.462,92.349 245.724,89.623C242.986,86.897 239.272,85.366 235.4,85.366C235.399,85.366 235.397,85.366 235.396,85.366C231.524,85.366 227.81,86.897 225.072,89.623C222.334,92.349 220.796,96.046 220.796,99.902C220.796,135.867 220.796,228.703 220.796,264.668C220.796,268.523 222.334,272.221 225.072,274.947C227.81,277.673 231.524,279.204 235.396,279.204C235.397,279.204 235.399,279.204 235.4,279.204C239.272,279.204 242.986,277.673 245.724,274.947C248.462,272.221 250,268.523 250,264.668C250,228.703 250,135.867 250,99.902Z" style="fill:rgb(37,37,37);"/>
        </g>
        <g transform="matrix(1,0,0,1,-15.438,-11.3257)">
            <circle cx="363.641" cy="303.904" r="24.058" style="fill:rgb(255,79,79);"/>
        </g>
        <g transform="matrix(1,0,0,1,-211.844,-11.3257)">
            <circle cx="363.641" cy="303.904" r="24.058" style="fill:white;"/>
        </g>
    </g>
</svg>
